<?xml version="1.0" encoding="utf-8"?>
<!-- Generator: Adobe Illustrator 25.2.0, SVG Export Plug-In . SVG Version: 6.00 Build 0)  -->
<svg version="1.2" baseProfile="tiny-ps" xmlns:xlink="http://www.w3.org/1999/xlink" viewBox="0 0 120 120" xmlns="http://www.w3.org/2000/svg">
  <title>gec</title>
<ellipse transform="matrix(0.071 -0.9975 0.9975 0.071 -8.262 108.235)" fill-rule="evenodd" fill="#FFCA05" cx="53.98" cy="58.55" rx="52.55" ry="52.55" />
<path fill="#034EA1" d="M116.15,73.56c1.51-15.54,0.24-25.4-5.02-38.82c1.86,0.11,3.2,0.68,3.9,1.78l0.05,0.09l-0.11-0.23  c-0.79-1.63-1.98-3.71-2.84-5.3l-0.26-0.44c-1.23-1.95-2.94-3.33-5.04-4.23c-1.39-2.06-2.77-3.99-4.19-5.81  c-2.8-3.55-5.79-6.65-9.43-9.39c-2.92-2.2-6.24-4.17-10.22-5.98c-0.89-0.41-1.82-0.8-2.78-1.19l-2.24-0.77l0,0h0h0l0,0l-0.06-0.02  l0,0h0l0,0h0l0,0h0l0,0h0l0,0h0l0,0h0h0l0,0h0l0,0h0h0l0,0h0l0,0h0h0l-0.01,0c-2.14-0.62-4.98-1.31-7.12-1.8l-0.87-0.13  c-2.11-0.3-4.65-0.58-6.62-0.76c-1.67-0.06-3.48,0.08-5.42,0.41c-1.76,0.3-3.62,0.75-5.57,1.36c-3.71-0.16-5.63-0.23-9.56,0.94  l-0.31,0.09c-1.01,0.35-2.35,0.83-3.35,1.21c-2.39,1-2.39,1-3.59,1.57l-0.71,0.34c2.24-0.85,4.21-1.59,7.95-1.07  c0.39,0.05,0.79,0.12,1.22,0.2c-0.41,0.19-0.81,0.39-1.22,0.59c-1.27,0.62-2.57,1.3-3.88,2.02c-1.51,0.85-3.15,1.85-4.86,2.98  c-1.15-1.06-2.08-1.91-3-2.1c-0.38-0.08-0.76-0.05-1.16,0.13c-0.68,0.43-1.59,1.02-2.26,1.46c-1.51,1.05-1.54,1.07-2.29,1.64  l-0.14,0.1c-0.5,0.77-0.7,1.34,0.62,4.76c-3.09,2.47-6.21,5.22-9.17,8.18c0.34-0.69,0.34-1.77,0.49-2.53  c0.5-2.51,1.8-4.85,3.87-6.97l-0.43,0.39c-1.73,1.63-1.8,1.7-2.71,2.63C17,19.7,16,20.78,15.26,21.62  c-2.29,3.03-4.27,5.65-5.61,11.42c0.38-0.47,1.14-1.41,2.15-2.58C7.24,35.78,3.46,41.57,1.45,47.43l-0.61,2.29l-0.91,4.19  c0.89-3.06,4.18-7.16,8.95-11.7c0.46,5.67,1.36,16.15,11.6,32.3C12.44,84.9,7.78,95,9.25,102.38c1.39-5.11,7.76-12.3,16.74-20.09  c1.69,2.09,3.33,4.02,4.94,5.84c3.86,4.35,7.6,8.03,11.74,11.53c3.34,2.82,6.94,5.51,11.09,8.35c-3.44,4.49-5.59,8.29-6.22,10.55  c2.83-2.76,6.08-5.59,9.59-8.42l0.67,0.39c3.76,2.16,7.7,4.3,12.04,6.07c3.99,1.63,8.31,2.95,13.14,3.7  c0.59,0.09,1.18,0.17,1.79,0.25c-0.59-0.1-1.18-0.21-1.79-0.33c-3.76-0.75-7.9-1.94-13.14-4.77c-3.09-1.68-6.56-3.93-10.55-7.01  c3.35-2.61,6.91-5.2,10.55-7.71c2.34-1.61,4.72-3.18,7.11-4.7c1.66,2.48,3.82,5.72,6.03,9.13c2.46,3.79,4.97,7.79,6.91,11.19  c-1.74-3.42-3.3-6.53-6.91-13.98c-1.06-2.18-2.29-4.73-3.75-7.77c1.25-0.78,2.51-1.54,3.75-2.29c3.48-2.08,6.92-4.02,10.22-5.76  c1.46-0.77,2.89-1.5,4.29-2.19c0.77,6.68,1.98,17.68-1.87,28.79c1.68-5.1,4.49-13.61,4-29.82c1.03-0.48,2.03-0.94,3-1.37  c4.51-1.98,8.46-3.37,11.5-3.97c-1.5,9.18-3.7,19.06-11.5,30.57c-0.28,0.41-0.58,0.83-0.87,1.25c0.29-0.4,0.59-0.79,0.87-1.2  c5.14-7.31,9.84-15.9,12.85-30.85c2.05-0.26,3.57-0.07,4.41,0.66l0.05,0.05C119.38,76.12,118.05,74.53,116.15,73.56z M69.85,4.25  c1.12-0.33,2.17-0.6,3.14-0.79c0.08-0.01,0.17-0.02,0.26-0.01c0.11,0.01,0.21,0.03,0.31,0.06c3.24,1.32,6.37,2.72,9.42,4.43  c3.48,1.94,6.86,4.29,10.22,7.36c2.92,2.68,5.82,5.92,8.75,9.93c-2.64-0.27-5.59-0.09-8.75,0.45c-2.87,0.49-5.91,1.28-9.03,2.29  c-0.37-0.59-0.77-1.22-1.19-1.88c-2.89-4.53-7.04-10.55-13.14-15.62c-1.77-1.47-3.71-2.87-5.83-4.12  C66.11,5.49,68.06,4.78,69.85,4.25z M42.67,17.38c4.22-2.54,8.41-4.87,12.38-6.89c0.96,0.67,1.87,1.33,2.75,1.99  c4.46,3.35,8.07,6.74,12.04,11.39c1.83,2.14,3.73,4.55,5.83,7.34c-1.95,0.84-3.9,1.75-5.83,2.7c-1.7,0.84-3.39,1.72-5.04,2.63  c-2.33,1.32-4.67,2.74-7,4.26c-1.31,0.85-2.61,1.72-3.91,2.63c-4.99-9.37-8.01-14.79-11.22-20.02c-0.88-1.44-1.78-2.87-2.74-4.36  C40.85,18.49,41.76,17.93,42.67,17.38z M26.65,67.18C20.5,54.4,17.82,46.09,16.46,35.59c4.11-3.34,8.72-6.76,13.55-10.06l0.93,1.58  c2.1,3.55,5.06,8.41,11.74,18.51c0.85,1.29,1.76,2.65,2.74,4.12c-0.92,0.73-1.83,1.47-2.74,2.22c-4.13,3.42-8.08,7.03-11.74,10.72  C29.46,64.16,28.03,65.67,26.65,67.18z M69.85,91.35c-4.65,3.91-8.71,7.95-12.04,11.75c-0.71,0.81-1.4,1.61-2.04,2.4  c-4.73-4.32-8.88-8.47-13.09-13.62c-3.34-4.09-6.72-8.81-10.46-14.76c3.29-2.62,6.8-5.28,10.46-7.91c3.51-2.53,7.14-5.03,10.84-7.47  L57.8,68c4.01,5.85,8.04,11.69,12.04,17.55l2.55,3.73C71.53,89.96,70.68,90.66,69.85,91.35z M93.2,76.69  c-2.61,1.11-5.25,2.39-7.85,3.81c-0.8,0.46-1.59,0.92-2.37,1.39c-2.6,1.58-5.09,3.26-7.46,5c-2.26-4.69-4.08-8.47-5.68-11.75  c-3.41-7.02-5.74-11.73-8.96-18.15c2.99-1.87,5.99-3.68,8.96-5.4c4.5-2.61,8.92-5.03,13.14-7.17l0.74-0.37  c3.93,7.5,6.88,13.88,9.48,22.03c0.93,2.91,1.81,6.04,2.68,9.52C94.99,75.94,94.1,76.3,93.2,76.69z M114.62,72.96  c-3.12-0.95-7.31-0.67-12,0.5c-1.18,0.29-2.39,0.64-3.63,1.04c-1.32-10.38-2.93-17.89-5.8-26.39c-0.79-2.34-1.68-4.75-2.68-7.31  c0.91-0.41,1.8-0.8,2.68-1.18c3.44-1.47,6.61-2.65,9.43-3.49c1.78-0.53,3.43-0.92,4.89-1.15C111.74,44.72,115.42,55.07,114.62,72.96  z" />
<rect fill-rule="evenodd" fill="none" width="120" height="120" />
</svg>